<?xml version="1.0" encoding="UTF-8" standalone="no"?>
<!-- Created with Inkscape (http://www.inkscape.org/) -->

<svg
   version="1.1"
   id="svg55"
   width="327.67999"
   height="233.92"
   viewBox="0 0 327.67999 233.92"
   sodipodi:docname="BeatCircle-white.svg"
   inkscape:version="1.2.2 (b0a8486541, 2022-12-01)"
   xmlns:inkscape="http://www.inkscape.org/namespaces/inkscape"
   xmlns:sodipodi="http://sodipodi.sourceforge.net/DTD/sodipodi-0.dtd"
   xmlns="http://www.w3.org/2000/svg"
   xmlns:svg="http://www.w3.org/2000/svg">
  <defs
     id="defs59">
    <inkscape:path-effect
       effect="bspline"
       id="path-effect526"
       is_visible="true"
       lpeversion="1"
       weight="33.333333"
       steps="2"
       helper_size="0"
       apply_no_weight="true"
       apply_with_weight="true"
       only_selected="false" />
    <inkscape:path-effect
       effect="bspline"
       id="path-effect225"
       is_visible="true"
       lpeversion="1"
       weight="33.333333"
       steps="2"
       helper_size="0"
       apply_no_weight="true"
       apply_with_weight="true"
       only_selected="false" />
    <inkscape:path-effect
       effect="bspline"
       id="path-effect225-3"
       is_visible="true"
       lpeversion="1"
       weight="33.333333"
       steps="2"
       helper_size="0"
       apply_no_weight="true"
       apply_with_weight="true"
       only_selected="false" />
    <inkscape:path-effect
       effect="bspline"
       id="path-effect526-7"
       is_visible="true"
       lpeversion="1"
       weight="33.333333"
       steps="2"
       helper_size="0"
       apply_no_weight="true"
       apply_with_weight="true"
       only_selected="false" />
    <inkscape:path-effect
       effect="bspline"
       id="path-effect526-2"
       is_visible="true"
       lpeversion="1"
       weight="33.333333"
       steps="2"
       helper_size="0"
       apply_no_weight="true"
       apply_with_weight="true"
       only_selected="false" />
    <inkscape:path-effect
       effect="bspline"
       id="path-effect526-7-1"
       is_visible="true"
       lpeversion="1"
       weight="33.333333"
       steps="2"
       helper_size="0"
       apply_no_weight="true"
       apply_with_weight="true"
       only_selected="false" />
  </defs>
  <sodipodi:namedview
     id="namedview57"
     pagecolor="#ffffff"
     bordercolor="#000000"
     borderopacity="0.25"
     inkscape:showpageshadow="2"
     inkscape:pageopacity="0.0"
     inkscape:pagecheckerboard="0"
     inkscape:deskcolor="#d1d1d1"
     showgrid="false"
     inkscape:zoom="1"
     inkscape:cx="19.5"
     inkscape:cy="96"
     inkscape:window-width="1366"
     inkscape:window-height="699"
     inkscape:window-x="0"
     inkscape:window-y="0"
     inkscape:window-maximized="1"
     inkscape:current-layer="g61" />
  <g
     inkscape:groupmode="layer"
     inkscape:label="Image"
     id="g61">
    <path
       style="fill:#ffffff"
       d="m 120.6945,164.3699 c -0.74695,-0.40688 -2.24204,-1.2213 -3.51854,-1.74057 -1.27651,-0.51927 -2.33436,-0.743 -3.39701,-0.89451 -1.06266,-0.15152 -2.12997,-0.23065 -3.37605,-0.27371 -1.24608,-0.0431 -2.67079,-0.05 -4.10988,0.12105 -1.43909,0.17101 -2.89218,0.52009 -4.36493,0.96463 -1.47276,0.44454 -2.964928,0.98455 -4.339668,1.59623 -1.374739,0.61168 -2.63176,1.29498 -3.97332,2.12223 -1.34156,0.82726 -2.767445,1.79836 -3.864259,2.62431 -1.096813,0.82594 -1.864336,1.50657 -2.726033,2.29831 -0.861698,0.79174 -1.817477,1.6945 -2.572818,2.5113 -0.75534,0.8168 -1.310049,1.5474 -2.046851,2.70374 -0.736803,1.15634 -1.655578,2.73817 -2.338648,4.12416 -0.683069,1.38599 -1.130371,2.57582 -1.338492,4.13896 -0.20812,1.56314 -0.177271,3.49901 0.04472,4.90337 0.221987,1.40437 0.634539,2.27697 1.259955,3.40162 0.625417,1.12464 1.463516,2.5013 2.689646,3.66047 1.226131,1.15917 2.839746,2.10127 4.321723,2.79891 1.481977,0.69764 2.832206,1.15107 4.447891,1.35887 1.615685,0.2078 3.496947,0.17038 5.657965,-0.0436 2.161017,-0.21404 4.601813,-0.60458 7.073803,-1.40326 2.472,-0.79867 4.97544,-2.00537 7.408,-3.53095 2.43255,-1.52558 4.79436,-3.37005 6.80983,-5.43685 2.01547,-2.06679 3.68474,-4.35607 4.78199,-6.29807 1.09724,-1.942 1.62248,-3.53706 1.91812,-5.033 0.29563,-1.49594 0.36151,-2.89303 0.39447,-4.48445 0.033,-1.59142 0.033,-5.62754 0.0398,-24.77766 0.007,-19.15011 0.0205,-54.53798 0.0618,-72.245784 0.0413,-17.707804 0.10979,-17.733656 0.19807,-17.752209 0.0883,-0.01855 0.19604,-0.02994 16.20862,-2.88812 16.01257,-2.858183 47.92874,-8.562886 63.96492,-11.425225 16.03618,-2.862338 16.19166,-2.882229 16.27506,-2.879612 0.0834,0.0026 0.095,0.02643 0.0602,17.351108 -0.0348,17.324683 -0.11548,51.949062 -0.15262,69.268282 -0.0371,17.31922 -0.0314,17.33225 -0.0348,17.34103 -0.003,0.009 -0.0158,0.0146 -0.72936,-0.40105 -0.71357,-0.41561 -2.12891,-1.25355 -3.91379,-1.79752 -1.78488,-0.54397 -3.93911,-0.79339 -6.10632,-0.83925 -2.16722,-0.0459 -4.34713,0.11203 -6.22109,0.39589 -1.87396,0.28386 -3.44164,0.69378 -5.90969,1.79572 -2.46806,1.10194 -5.836,2.89581 -8.8945,5.30946 -3.0585,2.41365 -5.80697,5.44666 -7.68344,8.38163 -1.87647,2.93496 -2.88068,5.77118 -3.12418,8.43597 -0.2435,2.66479 0.27328,5.15741 1.20841,7.13517 0.93513,1.97776 2.28783,3.44067 4.3385,4.69353 2.05068,1.25287 4.79893,2.2962 7.28561,2.81848 2.48668,0.52228 4.71184,0.52394 8.04902,-0.26538 3.33718,-0.78933 7.78657,-2.36937 11.75128,-4.75156 3.96471,-2.38218 7.44503,-5.5665 9.67007,-8.15157 2.22504,-2.58507 3.19494,-4.57118 3.80156,-6.53433 0.60663,-1.96315 0.84985,-3.90367 0.96365,-26.68207 0.11381,-22.7784 0.0981,-66.393044 0.0866,-88.213338 -0.0114,-21.820294 -0.019,-21.84582 -0.0615,-21.853035 -0.0426,-0.0072 -0.12067,0.0051 -17.72688,3.162462 -17.6062,3.157388 -52.7391,9.459636 -70.33029,12.624887 -17.59119,3.16525 -17.63957,3.193463 -17.68353,3.242482 -0.0439,0.04902 -0.083,0.118368 -0.0594,19.953195 0.0236,19.834827 0.10975,59.432887 0.21608,79.354937 0.10633,19.92206 0.23224,20.16711 0.29488,20.28903 0.0627,0.12193 0.0626,0.12219 -0.68433,-0.28469 z"
       id="path223"
       inkscape:path-effect="#path-effect225"
       inkscape:original-d="m 121.44145,164.77678 c -1.49409,-0.81341 -2.98918,-1.62782 -4.48527,-2.44324 -1.05689,-0.22273 -2.11474,-0.44645 -3.17362,-0.67118 -1.06634,-0.0781 -2.13365,-0.15727 -3.20197,-0.23741 -1.42377,-0.006 -2.84848,-0.0128 -4.27423,-0.0207 -1.45215,0.3501 -2.90524,0.69917 -4.35937,1.04726 -1.49122,0.54103 -2.98339,1.08104 -4.476587,1.62005 -1.256073,0.68433 -2.513095,1.36763 -3.771142,2.04995 -1.42494,0.97214 -2.850824,1.94325 -4.277735,2.91338 -0.766556,0.68167 -1.534082,1.3623 -2.302623,2.04195 -0.954819,0.9038 -1.910599,1.80656 -2.867399,2.70834 -0.553734,0.73164 -1.108445,1.46224 -1.664168,2.19186 -0.917815,1.5829 -1.836593,3.16473 -2.756389,4.7456 -0.44632,1.19087 -0.893622,2.3807 -1.341933,3.56956 0.03185,1.93695 0.0627,3.87282 0.09255,5.80773 0.413568,0.87364 0.82612,1.74624 1.23768,2.61785 0.839131,1.37771 1.677228,2.75437 2.514342,4.13005 1.614681,0.94314 3.228297,1.88524 4.840946,2.82636 1.351284,0.45445 2.701513,0.90788 4.05077,1.36031 1.882336,-0.0364 3.763598,-0.0738 5.643897,-0.11224 2.441896,-0.38955 4.882691,-0.78009 7.322541,-1.17163 2.50454,-1.20574 5.00798,-2.41243 7.51047,-3.62015 2.36291,-1.84354 4.72472,-3.68801 7.08558,-5.53352 1.67034,-2.28837 3.33961,-4.57765 5.00792,-6.86797 0.52625,-1.59411 1.05149,-3.18916 1.57573,-4.78524 0.0669,-1.39615 0.13276,-2.79324 0.19763,-4.19137 0.001,-1.78476 0.001,-5.82088 0,-8.73282 0.0147,-35.38829 0.0283,-70.77616 0.041,-106.16574 0.0694,-0.02484 0.13789,-0.05067 0.20533,-0.07751 0.10877,-0.01038 0.21654,-0.02177 0.32331,-0.03415 31.91846,-5.703933 63.83463,-11.408637 95.75045,-17.114456 0.15648,-0.01889 0.31196,-0.03878 0.46643,-0.05967 0.0126,0.02481 0.0242,0.04862 0.0348,0.07143 -0.0797,34.626759 -0.16031,69.251136 -0.24197,103.875196 0.007,0.0141 0.0126,0.0272 0.0174,0.0393 -0.0115,0.007 -0.0239,0.0127 -0.0374,0.0175 -1.4144,-0.83697 -2.82974,-1.67491 -4.24611,-2.51386 -2.15331,-0.24842 -4.30754,-0.49783 -6.4628,-0.74825 -2.17899,0.15889 -4.3589,0.31677 -6.53984,0.47366 -1.56675,0.41094 -3.13443,0.82087 -4.70314,1.22981 -3.36707,1.79495 -6.73501,3.58883 -10.10401,5.38174 -2.74759,3.03414 -5.49607,6.06715 -8.2456,9.09923 -1.00325,2.83733 -2.00746,5.67355 -3.01269,8.50883 0.51779,2.49371 1.03457,4.98633 1.55035,7.478 1.35376,1.46397 2.70646,2.92688 4.05819,4.38882 2.74937,1.04438 5.49762,2.0877 8.24494,3.13005 2.22625,0.003 4.45141,0.005 6.67562,0.005 4.45058,-1.57911 8.89997,-3.15916 13.34846,-4.74024 3.48145,-3.18345 6.96177,-6.36777 10.44116,-9.55316 0.97094,-1.9852 1.94084,-3.97131 2.90976,-5.95847 0.24423,-1.93959 0.48746,-3.88011 0.72969,-5.82166 -0.0147,-43.61539 -0.0305,-87.230034 -0.0472,-130.846549 -0.006,-0.0244 -0.014,-0.04979 -0.0225,-0.07619 -0.0771,0.01329 -0.1552,0.02558 -0.2343,0.03687 -35.13329,6.303499 -70.26618,12.605747 -105.40077,18.90712 -0.0473,0.02918 -0.0957,0.05737 -0.14501,0.08455 -0.0381,0.07035 -0.0772,0.139692 -0.11726,0.208038 0.0871,39.600649 0.17326,79.198711 0.25839,118.796571 0.12691,0.24605 0.25282,0.4911 0.37773,0.73515 z" />
    <path
       style="fill:#ffffff;stroke-width:0.675083"
       d="m 173.84321,184.77215 c -0.5362,-0.25832 -1.60943,-0.77537 -2.52577,-1.10504 -0.91633,-0.32967 -1.6757,-0.4717 -2.4385,-0.56789 -0.7628,-0.0962 -1.52897,-0.14644 -2.42345,-0.17378 -0.89448,-0.0274 -1.91719,-0.0318 -2.9502,0.0768 -1.03301,0.10855 -2.0761,0.33017 -3.13329,0.61239 -1.05718,0.28222 -2.12833,0.62506 -3.11516,1.01339 -0.98682,0.38833 -1.88916,0.82214 -2.85218,1.34733 -0.96302,0.52519 -1.98658,1.14172 -2.77392,1.66609 -0.78734,0.52436 -1.33829,0.95648 -1.95685,1.45913 -0.61856,0.50266 -1.30465,1.07579 -1.84687,1.59435 -0.54222,0.51856 -0.94041,0.9824 -1.46932,1.71653 -0.52892,0.73412 -1.18845,1.73839 -1.6788,2.61832 -0.49035,0.87993 -0.81145,1.63534 -0.96084,2.62776 -0.1494,0.99243 -0.12723,2.22146 0.0321,3.11307 0.15937,0.89161 0.45552,1.4456 0.90446,2.15961 0.44894,0.714 1.05057,1.58801 1.93071,2.32392 0.88014,0.73591 2.03847,1.33403 3.10228,1.77694 1.06381,0.44291 2.03306,0.73078 3.19287,0.8627 1.15982,0.13192 2.51027,0.10815 4.06155,-0.0277 1.55128,-0.1359 3.30336,-0.38384 5.07788,-0.89091 1.77452,-0.50708 3.57159,-1.27318 5.31778,-2.24175 1.74619,-0.96857 3.44158,-2.13957 4.88836,-3.45174 1.44677,-1.31217 2.64504,-2.76558 3.43266,-3.99849 0.78761,-1.2329 1.16466,-2.24557 1.37687,-3.19527 0.21221,-0.9497 0.2595,-1.83669 0.28316,-2.84703 0.0237,-1.01035 0.0237,-3.57277 0.0285,-15.73068 0.005,-12.1579 0.0147,-34.62473 0.0443,-45.86696 0.0296,-11.24222 0.0789,-11.25867 0.14216,-11.27042 0.0632,-0.0117 0.14073,-0.019 11.63518,-1.83359 11.49445,-1.81459 34.40512,-5.43635 45.9165,-7.25358 11.51138,-1.81723 11.623,-1.82986 11.68299,-1.82797 0.06,0.002 0.0681,0.0166 0.0431,11.01555 -0.025,10.99892 -0.0829,32.98102 -0.10942,43.97698 -0.0265,10.99597 -0.0227,11.00375 -0.0252,11.00912 -0.003,0.005 -0.0118,0.009 -0.52392,-0.25473 -0.51212,-0.26392 -1.52811,-0.7959 -2.80936,-1.14125 -1.28125,-0.34534 -2.82765,-0.50369 -4.38335,-0.53281 -1.55569,-0.0291 -3.1205,0.0711 -4.46569,0.25133 -1.34519,0.18021 -2.47053,0.44047 -4.24218,1.14005 -1.77165,0.69957 -4.18928,1.83845 -6.38479,3.37079 -2.19551,1.53234 -4.16848,3.45792 -5.51551,5.32126 -1.34703,1.86333 -2.06789,3.66399 -2.24269,5.35584 -0.17479,1.69185 0.19617,3.27435 0.86744,4.52996 0.67127,1.25562 1.64229,2.18437 3.11432,2.97978 1.47204,0.79541 3.44484,1.45779 5.22988,1.78918 1.78505,0.33139 3.38237,0.33205 5.77796,-0.16927 2.39558,-0.50133 5.58953,-1.50447 8.43556,-3.01688 2.84603,-1.51241 5.34435,-3.53406 6.94155,-5.17524 1.59719,-1.64119 2.29343,-2.90213 2.72887,-4.14845 0.43544,-1.24633 0.61003,-2.47832 0.69173,-16.93971 0.0817,-14.46139 0.0704,-42.15118 0.0623,-56.00424 -0.008,-13.85307 -0.0136,-13.86938 -0.0441,-13.873987 -0.0305,-0.0046 -0.0867,0.0032 -12.72506,2.007747 -12.63839,2.00454 -37.85814,6.00567 -50.48578,8.0152 -12.62764,2.00953 -12.66222,2.02737 -12.69386,2.05852 -0.0316,0.0311 -0.0596,0.0751 -0.0427,12.66776 0.0169,12.59269 0.0787,37.73247 0.15505,50.38044 0.0763,12.64797 0.16673,12.80358 0.21169,12.88098 0.045,0.0774 0.0452,0.0789 -0.49105,-0.17942 z"
       id="path223-6"
       inkscape:path-effect="#path-effect225-3"
       inkscape:original-d="m 174.37941,185.03047 c -1.07252,-0.51639 -2.14575,-1.03344 -3.21971,-1.55114 -0.75868,-0.14141 -1.51805,-0.28344 -2.27816,-0.42611 -0.76544,-0.0496 -1.53161,-0.0998 -2.29849,-0.15073 -1.02204,-0.004 -2.04475,-0.009 -3.0682,-0.0132 -1.04241,0.22226 -2.0855,0.44388 -3.12933,0.66487 -1.07045,0.34349 -2.1416,0.68632 -3.21346,1.02853 -0.90166,0.43446 -1.804,0.86827 -2.70707,1.30146 -1.02288,0.61718 -2.04644,1.23371 -3.07073,1.84962 -0.55028,0.43278 -1.10123,0.86489 -1.65291,1.29639 -0.68542,0.5738 -1.37151,1.14693 -2.05833,1.71945 -0.3975,0.4645 -0.79569,0.92834 -1.1946,1.39156 -0.65885,1.00493 -1.31838,2.0092 -1.97865,3.01285 -0.32038,0.75605 -0.64149,1.51145 -0.96329,2.26621 0.0228,1.22973 0.045,2.45876 0.0665,3.68718 0.29687,0.55466 0.59301,1.10865 0.88845,1.66201 0.60235,0.87467 1.20398,1.74868 1.80488,2.62206 1.15908,0.59877 2.31741,1.1969 3.47502,1.79439 0.97001,0.28851 1.93925,0.57638 2.9078,0.86361 1.35121,-0.0231 2.70166,-0.0468 4.05141,-0.0713 1.7529,-0.24732 3.50498,-0.49526 5.25641,-0.74384 1.79785,-0.7655 3.59492,-1.53159 5.3913,-2.29834 1.69619,-1.17042 3.39158,-2.34143 5.08631,-3.5131 1.19903,-1.45282 2.3973,-2.90623 3.59486,-4.36028 0.37778,-1.01206 0.75481,-2.02473 1.13114,-3.03803 0.048,-0.88637 0.0954,-1.77335 0.14187,-2.66098 7.1e-4,-1.13311 7.1e-4,-3.69553 0,-5.54426 0.0109,-22.46708 0.0203,-44.93391 0.0293,-67.40183 0.0498,-0.0157 0.0991,-0.0321 0.1474,-0.0492 0.078,-0.006 0.15544,-0.0138 0.23209,-0.0217 22.9123,-3.62128 45.82296,-7.24305 68.73337,-10.86552 0.11229,-0.0123 0.22394,-0.0246 0.33483,-0.0379 0.01,0.0158 0.0175,0.0309 0.025,0.0453 -0.0572,21.98362 -0.11515,43.96572 -0.17371,65.94762 0.005,0.01 0.01,0.0172 0.0123,0.025 -0.008,0.005 -0.0172,0.009 -0.0269,0.0111 -1.01532,-0.53136 -2.03131,-1.06334 -3.04803,-1.59597 -1.54573,-0.15772 -3.09213,-0.31607 -4.63925,-0.47505 -1.56417,0.10082 -3.12898,0.20111 -4.69455,0.30071 -1.12467,0.2609 -2.25002,0.52115 -3.37609,0.78078 -2.41703,1.13957 -4.83465,2.27845 -7.25306,3.41672 -1.97232,1.9263 -3.94529,3.85188 -5.91901,5.77685 -0.72017,1.80135 -1.44104,3.602 -2.16262,5.40204 0.37169,1.5832 0.74266,3.1657 1.11291,4.74759 0.97178,0.92944 1.9428,1.85819 2.91312,2.78635 1.9736,0.66305 3.9464,1.32541 5.91853,1.98718 1.59808,0.001 3.1954,0.002 4.79202,0.002 3.1948,-1.00253 6.38875,-2.00567 9.58204,-3.00946 2.49912,-2.02108 4.99744,-4.04273 7.49508,-6.06505 0.69697,-1.26034 1.3932,-2.52128 2.08874,-3.78288 0.17531,-1.23139 0.34991,-2.46338 0.52379,-3.69601 -0.0109,-27.69026 -0.0218,-55.38005 -0.0338,-83.071036 -0.004,-0.01549 -0.01,-0.03161 -0.0161,-0.04838 -0.0553,0.0085 -0.11146,0.01624 -0.16818,0.02341 -25.22004,4.001926 -50.43979,8.003056 -75.66076,12.003626 -0.034,0.0186 -0.0686,0.0364 -0.1041,0.0537 -0.0274,0.0447 -0.0554,0.0886 -0.0842,0.13209 0.0625,25.14141 0.12443,50.28119 0.18548,75.42081 0.091,0.15622 0.18149,0.31178 0.27116,0.46673 z" />
    <path
       style="fill:#ffffff"
       d="m 133.82209,69.116322 c 8.08436,8.470221 24.25211,25.409634 32.35428,33.902888 8.10217,8.49324 8.13882,8.54018 8.16749,8.55466 0.0287,0.0145 0.0502,-0.002 0.3155,-0.32295 0.26532,-0.32054 0.77476,-0.94502 1.03113,-1.26544 0.25638,-0.32043 0.25975,-0.33755 0.25688,-0.3521 -0.003,-0.0145 -0.0132,-0.0272 -8.31867,-8.66818 -8.30543,-8.641014 -24.90544,-25.909769 -33.20723,-34.54778 -8.30178,-8.638011 -8.30449,-8.645113 -8.31229,-8.644143 -0.008,9.7e-4 -0.0204,0.01094 -0.14943,0.406527 -0.12901,0.39559 -0.37401,1.175992 -0.45792,1.644605 -0.0839,0.468613 -0.008,0.624834 0.059,0.709476 0.0665,0.08464 0.12248,0.0986 0.1499,0.105438 0.0274,0.0068 0.027,0.0068 8.11138,8.476999 z"
       id="path524"
       inkscape:path-effect="#path-effect526"
       inkscape:original-d="m 125.73773,60.646102 c 16.16875,16.940417 32.33649,33.879834 48.50324,50.818248 0.0377,0.048 0.0744,0.0949 0.11004,0.14091 0.0224,-0.0158 0.0439,-0.0327 0.0643,-0.0505 0.51046,-0.62349 1.0199,-1.24797 1.52835,-1.87345 0.004,-0.0161 0.008,-0.0331 0.0101,-0.0512 -0.009,-0.0115 -0.0195,-0.024 -0.0308,-0.0375 -16.59967,-17.268444 -33.19968,-34.537198 -49.80102,-51.807297 -0.002,-0.006 -0.005,-0.01299 -0.008,-0.02098 -0.0117,0.011 -0.0243,0.021 -0.038,0.03 -0.24401,0.781435 -0.489,1.561839 -0.735,2.341258 0.0774,0.157229 0.15379,0.313452 0.22919,0.468678 0.057,0.01496 0.11299,0.02892 0.16799,0.04189 z" />
    <path
       style="fill:#ffffff;stroke-width:0.799194"
       d="m 230.25538,41.625398 c 3.77664,11.580932 11.32945,34.741396 15.11431,46.353831 3.78485,11.612435 3.80172,11.67642 3.81473,11.696871 0.013,0.02045 0.0229,-0.0026 0.14687,-0.440963 0.124,-0.438367 0.362,-1.292188 0.48259,-1.730792 0.12059,-0.438605 0.12359,-0.461933 0.12276,-0.482583 -8.3e-4,-0.02065 -0.005,-0.03653 -3.8853,-11.850977 C 242.1714,73.356341 234.41665,49.74557 230.53788,37.935353 226.65911,26.125137 226.65632,26.115141 226.6514,26.117692 c -0.005,0.0026 -0.0102,0.01482 -0.0702,0.555398 -0.06,0.540577 -0.17447,1.607581 -0.21366,2.247987 -0.0392,0.640406 -0.004,0.853933 0.028,0.970051 0.0315,0.116119 0.0575,0.135029 0.0701,0.144188 0.0126,0.0092 0.0131,0.0092 3.78977,11.590082 z"
       id="path524-5"
       inkscape:path-effect="#path-effect526-7"
       inkscape:original-d="m 226.47875,30.044467 c 7.55332,23.161846 15.10611,46.322318 22.65845,69.481432 0.0177,0.06567 0.0342,0.129753 0.0508,0.192655 0.0106,-0.0215 0.02,-0.04475 0.0296,-0.06909 0.23849,-0.85247 0.47648,-1.706294 0.71401,-2.561487 0.004,-0.02209 0.008,-0.04529 0.009,-0.06998 -0.009,-0.01569 -0.009,-0.03286 -0.0146,-0.05132 -7.75459,-23.610343 -15.50935,-47.221111 -23.26472,-70.833718 -4.7e-4,-0.0083 -0.005,-0.01781 -0.008,-0.02868 -0.009,0.01503 -0.011,0.02868 -0.0175,0.04102 -0.114,1.068432 -0.22847,2.135433 -0.34335,3.2011 0.0366,0.214973 0.0719,0.428562 0.10706,0.640806 0.0272,0.02051 0.0531,0.03954 0.0787,0.05727 z" />
    <path
       style="fill:#ffffff;stroke-width:0.799194"
       d="m 229.52019,113.30005 c 3.77664,11.58093 11.32945,34.74139 15.11431,46.35384 3.78486,11.61245 3.80172,11.67641 3.81473,11.69686 0.013,0.0204 0.0229,-0.003 0.14688,-0.44099 0.12399,-0.43835 0.36199,-1.29217 0.48258,-1.73078 0.12059,-0.43862 0.12359,-0.46195 0.12276,-0.4826 -8.4e-4,-0.0207 -0.005,-0.0366 -3.8853,-11.85099 -3.87994,-11.81441 -11.63469,-35.42519 -15.51346,-47.2354 -3.87877,-11.810214 -3.88156,-11.82021 -3.88648,-11.817659 -0.005,0.0026 -0.0102,0.01482 -0.0702,0.555398 -0.06,0.540577 -0.17447,1.607581 -0.21366,2.247991 -0.0392,0.6404 -0.004,0.85393 0.028,0.97005 0.0315,0.11612 0.0575,0.13502 0.0701,0.1442 0.0126,0.009 0.0131,0.009 3.78978,11.59008 z"
       id="path524-5-2"
       inkscape:path-effect="#path-effect526-7-1"
       inkscape:original-d="m 225.74356,101.71912 c 7.55332,23.16184 15.10611,46.32231 22.65845,69.48143 0.0177,0.0657 0.0342,0.12975 0.0508,0.19265 0.0106,-0.0215 0.02,-0.0448 0.0296,-0.0691 0.23849,-0.85247 0.47648,-1.70629 0.71401,-2.56149 0.004,-0.0221 0.008,-0.0453 0.009,-0.07 -0.009,-0.0157 -0.009,-0.0329 -0.0146,-0.0513 -7.75459,-23.61034 -15.50935,-47.22111 -23.26472,-70.833712 -4.7e-4,-0.0083 -0.005,-0.01781 -0.008,-0.02868 -0.009,0.01503 -0.011,0.02868 -0.0175,0.04102 -0.114,1.068432 -0.22847,2.135433 -0.34335,3.201102 0.0366,0.21497 0.0719,0.42856 0.10706,0.6408 0.0272,0.0205 0.0531,0.0395 0.0787,0.0573 z" />
    <path
       style="fill:#ffffff;stroke-width:1.02771"
       d="m 133.57362,135.34662 c 8.4042,8.60575 25.21157,25.81622 33.63428,34.44538 8.42271,8.62916 8.46077,8.6768 8.49062,8.69151 0.0299,0.0147 0.0522,-0.002 0.328,-0.32809 0.27585,-0.32569 0.80545,-0.96016 1.07194,-1.28566 0.2665,-0.3255 0.27001,-0.3429 0.2671,-0.35762 -0.003,-0.0147 -0.0138,-0.0277 -8.64783,-8.80701 -8.63399,-8.77926 -25.89073,-26.32434 -34.52088,-35.10053 -8.63016,-8.77619 -8.6329,-8.78348 -8.64095,-8.78248 -0.008,0.001 -0.0211,0.0111 -0.15527,0.41303 -0.13412,0.40193 -0.38881,1.19481 -0.47603,1.67095 -0.0872,0.47613 -0.008,0.63483 0.0613,0.72083 0.0691,0.086 0.1273,0.1002 0.1558,0.10715 0.0285,0.007 0.0277,0.007 8.4319,8.61254 z"
       id="path524-9"
       inkscape:path-effect="#path-effect526-2"
       inkscape:original-d="m 125.16943,126.74087 c 16.80841,17.21148 33.61578,34.42195 50.42211,51.63139 0.0392,0.0488 0.0773,0.0964 0.11439,0.14317 0.0233,-0.0161 0.0456,-0.0332 0.0669,-0.0513 0.53065,-0.63347 1.06025,-1.26794 1.58881,-1.90343 0.004,-0.0163 0.008,-0.0336 0.0105,-0.052 -0.009,-0.0117 -0.0203,-0.0244 -0.032,-0.0381 -17.25638,-17.54475 -34.51312,-35.08983 -51.77123,-52.63627 -0.002,-0.006 -0.005,-0.0132 -0.008,-0.0213 -0.0122,0.0112 -0.0253,0.0213 -0.0395,0.0305 -0.25367,0.79394 -0.50835,1.58683 -0.76408,2.37872 0.0805,0.15975 0.15987,0.31847 0.23826,0.47618 0.0593,0.0152 0.11746,0.0294 0.17463,0.0426 z" />
  </g>
</svg>
